<mxfile host="Electron" modified="2023-11-10T13:01:46.136Z" agent="Mozilla/5.0 (Windows NT 10.0; Win64; x64) AppleWebKit/537.36 (KHTML, like Gecko) draw.io/22.0.2 Chrome/114.0.5735.289 Electron/25.8.4 Safari/537.36" etag="tS1g6fEM0JMRlKN5_kei" version="22.0.2" type="device">
  <diagram name="Page-1" id="hZn_48MDfcFpqz2z-RAH">
    <mxGraphModel dx="1200" dy="1740" grid="1" gridSize="10" guides="1" tooltips="1" connect="1" arrows="1" fold="1" page="1" pageScale="1" pageWidth="850" pageHeight="1100" math="0" shadow="0">
      <root>
        <mxCell id="0" />
        <mxCell id="1" parent="0" />
        <mxCell id="unwLs3PBp1Bpt1um5qxu-7" style="edgeStyle=orthogonalEdgeStyle;rounded=0;orthogonalLoop=1;jettySize=auto;html=1;exitX=0.221;exitY=0.039;exitDx=0;exitDy=0;exitPerimeter=0;strokeColor=#FFB570;" edge="1" parent="1" source="unwLs3PBp1Bpt1um5qxu-1">
          <mxGeometry relative="1" as="geometry">
            <mxPoint x="359" y="340" as="targetPoint" />
            <Array as="points" />
          </mxGeometry>
        </mxCell>
        <mxCell id="unwLs3PBp1Bpt1um5qxu-1" value="Database" style="strokeWidth=2;html=1;shape=mxgraph.flowchart.database;whiteSpace=wrap;strokeColor=#FFB570;fillColor=#FFD966;" vertex="1" parent="1">
          <mxGeometry x="340" y="370" width="110" height="110" as="geometry" />
        </mxCell>
        <mxCell id="unwLs3PBp1Bpt1um5qxu-29" style="edgeStyle=orthogonalEdgeStyle;rounded=0;orthogonalLoop=1;jettySize=auto;html=1;entryX=0.73;entryY=0.033;entryDx=0;entryDy=0;entryPerimeter=0;strokeColor=#0066cc;" edge="1" parent="1" target="unwLs3PBp1Bpt1um5qxu-1">
          <mxGeometry relative="1" as="geometry">
            <mxPoint x="415" y="340" as="sourcePoint" />
          </mxGeometry>
        </mxCell>
        <mxCell id="unwLs3PBp1Bpt1um5qxu-2" value="Model" style="swimlane;whiteSpace=wrap;html=1;perimeterSpacing=0;rounded=1;strokeColor=#0066CC;fillColor=#00CCCC;" vertex="1" parent="1">
          <mxGeometry x="290" y="210" width="200" height="130" as="geometry" />
        </mxCell>
        <mxCell id="unwLs3PBp1Bpt1um5qxu-16" value="Data management&lt;br&gt;Receives user input from the controller" style="text;html=1;strokeColor=none;fillColor=none;align=left;verticalAlign=top;whiteSpace=wrap;rounded=0;" vertex="1" parent="unwLs3PBp1Bpt1um5qxu-2">
          <mxGeometry x="5" y="27.5" width="190" height="95" as="geometry" />
        </mxCell>
        <mxCell id="unwLs3PBp1Bpt1um5qxu-3" value="View" style="swimlane;whiteSpace=wrap;html=1;perimeterSpacing=0;rounded=1;strokeColor=#00994D;fillColor=#99FF33;" vertex="1" parent="1">
          <mxGeometry x="470" y="20" width="200" height="130" as="geometry" />
        </mxCell>
        <mxCell id="unwLs3PBp1Bpt1um5qxu-18" value="View management&lt;br&gt;Render data from the model to the browser" style="text;html=1;strokeColor=none;fillColor=none;align=left;verticalAlign=top;whiteSpace=wrap;rounded=0;" vertex="1" parent="unwLs3PBp1Bpt1um5qxu-3">
          <mxGeometry x="5" y="30" width="190" height="95" as="geometry" />
        </mxCell>
        <mxCell id="unwLs3PBp1Bpt1um5qxu-4" value="Controller" style="swimlane;whiteSpace=wrap;html=1;perimeterSpacing=0;rounded=1;fillColor=#FFCCFF;strokeColor=#CC0066;startSize=23;" vertex="1" parent="1">
          <mxGeometry x="110" y="20" width="200" height="130" as="geometry" />
        </mxCell>
        <mxCell id="unwLs3PBp1Bpt1um5qxu-17" value="Receives and validates user&#39;s input&lt;br&gt;Passes the input into model" style="text;html=1;strokeColor=none;fillColor=none;align=left;verticalAlign=top;whiteSpace=wrap;rounded=0;" vertex="1" parent="unwLs3PBp1Bpt1um5qxu-4">
          <mxGeometry x="5" y="29" width="190" height="95" as="geometry" />
        </mxCell>
        <mxCell id="unwLs3PBp1Bpt1um5qxu-5" value="Browser" style="ellipse;whiteSpace=wrap;html=1;strokeColor=#990000;fillColor=#FFCCCC;" vertex="1" parent="1">
          <mxGeometry x="330" y="-130" width="120" height="80" as="geometry" />
        </mxCell>
        <mxCell id="unwLs3PBp1Bpt1um5qxu-14" value="" style="endArrow=classic;html=1;rounded=0;entryX=0.5;entryY=0;entryDx=0;entryDy=0;strokeColor=#990000;exitX=0;exitY=1;exitDx=0;exitDy=0;" edge="1" parent="1" source="unwLs3PBp1Bpt1um5qxu-5" target="unwLs3PBp1Bpt1um5qxu-4">
          <mxGeometry width="50" height="50" relative="1" as="geometry">
            <mxPoint x="350" y="-90" as="sourcePoint" />
            <mxPoint x="450" y="-40" as="targetPoint" />
          </mxGeometry>
        </mxCell>
        <mxCell id="unwLs3PBp1Bpt1um5qxu-15" value="" style="endArrow=classic;html=1;rounded=0;entryX=1;entryY=1;entryDx=0;entryDy=0;exitX=0.75;exitY=0;exitDx=0;exitDy=0;strokeColor=#4D9900;" edge="1" parent="1" source="unwLs3PBp1Bpt1um5qxu-3" target="unwLs3PBp1Bpt1um5qxu-5">
          <mxGeometry width="50" height="50" relative="1" as="geometry">
            <mxPoint x="358" y="-82" as="sourcePoint" />
            <mxPoint x="220" y="30" as="targetPoint" />
          </mxGeometry>
        </mxCell>
        <mxCell id="unwLs3PBp1Bpt1um5qxu-31" value="" style="endArrow=classic;html=1;rounded=0;exitX=0.5;exitY=1;exitDx=0;exitDy=0;entryX=0.423;entryY=-0.003;entryDx=0;entryDy=0;entryPerimeter=0;strokeColor=#CC0066;" edge="1" parent="1" source="unwLs3PBp1Bpt1um5qxu-4" target="unwLs3PBp1Bpt1um5qxu-2">
          <mxGeometry width="50" height="50" relative="1" as="geometry">
            <mxPoint x="400" y="210" as="sourcePoint" />
            <mxPoint x="450" y="160" as="targetPoint" />
          </mxGeometry>
        </mxCell>
        <mxCell id="unwLs3PBp1Bpt1um5qxu-32" value="" style="endArrow=classic;html=1;rounded=0;exitX=0.63;exitY=0.003;exitDx=0;exitDy=0;exitPerimeter=0;strokeColor=#0066cc;" edge="1" parent="1" source="unwLs3PBp1Bpt1um5qxu-2">
          <mxGeometry width="50" height="50" relative="1" as="geometry">
            <mxPoint x="410" y="260" as="sourcePoint" />
            <mxPoint x="580" y="150" as="targetPoint" />
          </mxGeometry>
        </mxCell>
        <mxCell id="unwLs3PBp1Bpt1um5qxu-33" value="Update" style="text;html=1;strokeColor=none;fillColor=none;align=center;verticalAlign=middle;whiteSpace=wrap;rounded=0;rotation=-20;" vertex="1" parent="1">
          <mxGeometry x="440" y="160" width="60" height="30" as="geometry" />
        </mxCell>
        <mxCell id="unwLs3PBp1Bpt1um5qxu-34" value="Manipulate" style="text;html=1;strokeColor=none;fillColor=none;align=center;verticalAlign=middle;whiteSpace=wrap;rounded=0;rotation=20;" vertex="1" parent="1">
          <mxGeometry x="290" y="160" width="60" height="30" as="geometry" />
        </mxCell>
        <mxCell id="unwLs3PBp1Bpt1um5qxu-35" value="Uses" style="text;html=1;strokeColor=none;fillColor=none;align=center;verticalAlign=middle;whiteSpace=wrap;rounded=0;rotation=-30;" vertex="1" parent="1">
          <mxGeometry x="240" y="-40" width="60" height="30" as="geometry" />
        </mxCell>
        <mxCell id="unwLs3PBp1Bpt1um5qxu-36" value="Sees" style="text;html=1;strokeColor=none;fillColor=none;align=center;verticalAlign=middle;whiteSpace=wrap;rounded=0;rotation=25;" vertex="1" parent="1">
          <mxGeometry x="510" y="-40" width="60" height="30" as="geometry" />
        </mxCell>
      </root>
    </mxGraphModel>
  </diagram>
</mxfile>
